<?xml version="1.0" encoding="utf-8"?>
<!-- Generator: Adobe Illustrator 17.0.0, SVG Export Plug-In . SVG Version: 6.00 Build 0)  -->
<!DOCTYPE svg PUBLIC "-//W3C//DTD SVG 1.1//EN" "http://www.w3.org/Graphics/SVG/1.1/DTD/svg11.dtd">
<svg version="1.1" id="Capa_1" xmlns="http://www.w3.org/2000/svg" xmlns:xlink="http://www.w3.org/1999/xlink" x="0px" y="0px"
	 width="64px" height="64px" viewBox="0 0 64 64" enable-background="new 0 0 64 64" xml:space="preserve">
<path d="M21.186,18.663c-0.552,0-1,0.447-1,1v31.476H8.48V19.663c0-0.553-0.448-1-1-1c-0.552,0-1,0.447-1,1v32.476
	c0,0.553,0.448,1,1,1h13.706c0.552,0,1-0.447,1-1V19.663C22.186,19.11,21.738,18.663,21.186,18.663z"/>
<path d="M39.069,9.129c-0.552,0-1,0.447-1,1v41.01H26.364v-41.01c0-0.553-0.448-1-1-1c-0.552,0-1,0.447-1,1v42.01
	c0,0.553,0.448,1,1,1h13.706c0.552,0,1-0.447,1-1v-42.01C40.069,9.576,39.622,9.129,39.069,9.129z"/>
<path d="M51.292,20.037c-0.062-0.259-0.223-0.481-0.449-0.62c-0.227-0.14-0.499-0.183-0.756-0.121l-7.79,1.858
	c-0.537,0.128-0.869,0.668-0.741,1.205c0.128,0.537,0.669,0.869,1.205,0.74l6.817-1.626l6.746,28.292l-8.2,1.955l-5.153-21.618
	c-0.127-0.538-0.668-0.868-1.205-0.741c-0.537,0.128-0.869,0.667-0.741,1.204l5.385,22.592c0.062,0.259,0.223,0.481,0.449,0.62
	c0.159,0.098,0.34,0.148,0.524,0.148c0.078,0,0.155-0.009,0.232-0.027l10.145-2.42c0.537-0.128,0.869-0.667,0.741-1.204
	L51.292,20.037z"/>
<circle cx="14.333" cy="27.735" r="3.389"/>
<path d="M10.361,47.072v0.783c0,0.606,0.492,1.098,1.098,1.098h5.748c0.606,0,1.098-0.491,1.098-1.098v-0.783
	c0-0.607-0.492-1.099-1.098-1.099H11.46C10.853,45.974,10.361,46.465,10.361,47.072z"/>
<circle cx="32.217" cy="18.716" r="3.388"/>
<path d="M28.245,47.072v0.783c0,0.606,0.492,1.098,1.098,1.098h5.747c0.606,0,1.098-0.491,1.098-1.098v-0.783
	c0-0.607-0.492-1.099-1.098-1.099h-5.747C28.737,45.974,28.245,46.465,28.245,47.072z"/>
<circle cx="46.288" cy="26.548" r="2.202"/>
<path d="M48.538,48.548c0.141,0.59,0.733,0.954,1.323,0.812l3.755-0.896c0.59-0.142,0.954-0.733,0.813-1.323l-0.181-0.762
	c-0.141-0.59-0.733-0.954-1.323-0.812l-3.754,0.895c-0.59,0.142-0.954,0.733-0.813,1.323L48.538,48.548z"/>
<path d="M19.305,21.956v-1.997c0-0.553-0.448-1-1-1c-0.552,0-1,0.447-1,1v0.997h-5.944v-0.997c0-0.553-0.448-1-1-1
	c-0.552,0-1,0.447-1,1v1.997c0,0.553,0.448,1,1,1h7.944C18.857,22.956,19.305,22.509,19.305,21.956z"/>
<path d="M37.188,12.126v-1.997c0-0.553-0.448-1-1-1c-0.552,0-1,0.447-1,1v0.997h-5.944v-0.997c0-0.553-0.448-1-1-1
	c-0.552,0-1,0.447-1,1v1.997c0,0.553,0.448,1,1,1h7.944C36.741,13.126,37.188,12.679,37.188,12.126z"/>
</svg>
